<svg xmlns="http://www.w3.org/2000/svg" width="31" height="38" viewBox="0 0 31 38">
    <g fill="none" fill-rule="evenodd" stroke-linecap="round" stroke-linejoin="round">
        <path stroke="#0B2135" d="M18.15 24.96l-4.5 4.5s-.6.6-1.3.6h-4.5c-1.1 0-1.9.9-1.9 1.9 0 1.1.9 1.9 1.9 1.9h5.8c.6 0 1.3-.6 1.3-.6l7.1-6.4m3.2-26.4v5.2c0 1.3 3.9 3.9 3.9 10.3m-26.6 7.1c-.3.3-.5.8-.5 1.3 0 1.1.9 1.9 1.9 1.9h2m5.1 0h-5.1c-1.1 0-1.9.9-1.9 1.9 0 1 .9 1.9 1.9 1.9h1.9m1.9-27.9V.46"/>
        <path stroke="#FD4F57" d="M9.75 36.56v1.3-1.3zm-.4-15.4l-5.3-5.3c-.8-.8-2-.8-2.7 0-.8.8-.8 2 0 2.7l5.3 5.3c.8.8 2 .8 2.7 0 .8-.8.8-2 0-2.7zm5.2-11.2l-5-5c-.8-.8-2-.8-2.7 0-.8.8-.8 2 0 2.7l5 5c.8.8 2 .8 2.7 0 .7-.8.7-2 0-2.7zm.4 5.9l-7.3-7.3c-.8-.8-2-.8-2.7 0-.8.8-.8 2 0 2.7l7.3 7.3c.8.8 2 .8 2.7 0 .8-.7.8-2 0-2.7zm0 8.2c-.8.8-2 .8-2.7 0l-9.1-9.1c-.8-.8-.8-2 0-2.7.8-.8 2-.8 2.7 0l9.1 9.1c.8.7.8 1.9 0 2.7zm10.3 13.8v-1.3c0-1.3 5.1-7.7 5.1-12.2 0-3.9-1.9-5.8-3.9-7.1-1.5-1-6.4-3.9-6.4-3.9-1-.5-1.9 1.5-1.9 2.6 0 1.3 1.3 1.9 2.6 3.2l3.2 3.2c.6.6.6.6.6 1.3 0 .2-.2.5-.5.9l1.2 13.3z"/>
    </g>
</svg>
