<svg xmlns="http://www.w3.org/2000/svg" width="28" height="37" viewBox="0 0 28 37">
    <g fill="none" fill-rule="evenodd" stroke-linecap="round" stroke-linejoin="round">
        <path stroke="#0B2135" d="M14.65 32.86c0-.3-.3-.6-.6-.6s-.6.3-.6.6.3.6.6.6.6-.2.6-.6z"/>
        <path stroke="#FD4F57" d="M23.05 14.16l-4.8-4.8m4.8 1.1l-1.2-1.2"/>
        <path stroke="#0B2135" d="M24.25 29.86h-23v3.6c0 1.2 1.2 2.4 2.4 2.4h20.6c1.2 0 2.4-1.2 2.4-2.4V5.56H3.75"/>
        <path stroke="#0B2135" d="M1.25 27.46V3.26c0-1.2 1.2-2.4 2.4-2.4h20.6c1.2 0 2.4 1.2 2.4 2.4"/>
    </g>
</svg>
