<svg xmlns="http://www.w3.org/2000/svg" width="37" height="34" viewBox="0 0 37 34">
    <g fill="none" fill-rule="evenodd" stroke-linecap="round" stroke-linejoin="round">
        <path stroke="#FD4F57" d="M10.2 21.46c0-.7-.5-1.2-1.2-1.2s-1.2.5-1.2 1.2.5 1.2 1.2 1.2c.6.1 1.2-.5 1.2-1.2zm10.9-1.2l2.4 2.4-2.4-2.4zm2.4 0l-2.4 2.4 2.4-2.4zm-17-10.9l2.4 2.4-2.4-2.4zm0 2.5l2.4-2.4-2.4 2.4zm21.8 1.2c0-1.3-1.1-2.4-2.4-2.4-1.3 0-2.4 1.1-2.4 2.4 0 1.3 1.1 2.4 2.4 2.4 1.3 0 2.4-1.1 2.4-2.4z"/>
        <path stroke="#0B2135" d="M26.8 33.76l-2.6-5.9m-12.4.1l-2.6 5.9M18 2.16V.96m14 3.6H.5v-2.4h35.1v2.4h-1.2v20.6c0 1.3-1.1 2.4-2.4 2.4H4.1c-1.3 0-2.4-1.1-2.4-2.4V6.96"/>
        <path stroke="#FD4F57" d="M8.9 20.26c0-4 3.3-7.3 7.3-7.3H21"/>
        <path stroke="#FD4F57" d="M18.6 15.46l2.4-2.4-2.4-2.4"/>
    </g>
</svg>
