<svg xmlns="http://www.w3.org/2000/svg" width="36" height="37" viewBox="0 0 36 37">
    <g fill="none" fill-rule="evenodd" stroke-linecap="round" stroke-linejoin="round">
        <path stroke="#0B2135" d="M10.1 31.06H6.5m5.4-25.5h21.2c1.3 0 2.4 1.1 2.4 2.4v27.9H10.1V7.96c0-1.3-1.1-2.4-2.4-2.4-1.3 0-2.4 1.1-2.4 2.4v20.6c0 1.3-1.1 2.4-2.4 2.4-1.3 0-2.4-1.1-2.4-2.4V.76h25.4v2.4"/>
        <path stroke="#FD4F57" d="M15.5 29.76h-.6m0-3.6h.6m0-3.6h-.6m7.9 7.2H18m-.1-3.6h5.4m1.3-13.3h3.6m-13.3 0h7.3m-4.3 9.7h4.2m-7.2-6.1h15.7m-1.8 14.9v-1.6m0-7.2v-1.6m-1.8 7c0 1 .8 1.8 1.8 1.8s1.8-.8 1.8-1.8-.8-1.8-1.8-1.8-1.8-.8-1.8-1.8.8-1.8 1.8-1.8 1.8.8 1.8 1.8"/>
    </g>
</svg>
