<svg xmlns="http://www.w3.org/2000/svg" width="39" height="39" viewBox="0 0 39 39">
    <g fill="none" fill-rule="evenodd" stroke-linecap="round">
        <path stroke="#FD4F57" stroke-linejoin="round" d="M13.35 13.66l-1.8 1.8m.7-4.5h-2.6m3.7-2.7l-1.8-1.8m9.1 0l-1.9 1.8m-2.7-1.1v-2.6m3.9 15.3l-4.8-7.8c-.5-.8-.3-1.7.5-2.2.8-.5 1.5 0 2.1.7l4.9 6.9c-.5-.8-.2-1.8.6-2.3.8-.5 1.8-.2 2.3.6l.4.7c-.5-.8-.2-1.8.6-2.3.8-.5 1.8-.2 2.3.6l.6 1.1c-.3-.6-.1-1.4.5-1.7.6-.3 1.4-.1 1.7.5 0 0 1.8 2.6 3.1 6.2"/>
        <path stroke="#0B2135" d="M16.05 31.36v3.9-3.9zm3.9-5.7c0 .4-.3.6-.6.6-.4 0-.6-.3-.6-.6s.3-.6.6-.6c.3-.1.6.2.6.6z"/>
        <path stroke="#0B2135" stroke-linejoin="round" d="M37.55 22.46H.75v3.8c0 1.4 1.1 2.6 2.6 2.6h31.9c1.4 0 2.6-1.1 2.6-2.6v-23c0-1.4-1.1-2.6-2.6-2.6H3.35c-1.4.1-2.5 1.3-2.6 2.6v16.6m19.2 15.4h-6.4c-1.3 0-2.6 1.3-2.6 2.6h16.6c0-1.3-1.3-2.6-2.6-2.6h-2.6v-3.8"/>
    </g>
</svg>
