<svg xmlns="http://www.w3.org/2000/svg" width="36" height="37" viewBox="0 0 36 37">
    <g fill="none" fill-rule="evenodd" stroke-linecap="round" stroke-linejoin="round">
        <path stroke="#0B2135" d="M19.8 10.36h2.4-2.4zm4.9 0h2.4-2.4zm4.8 0h2.4-2.4zm-25.4 0h0zm8.5-6.6c0-.3-.3-.6-.6-.6s-.6.3-.6.6.3.6.6.6.6-.3.6-.6zm-3.7 0c0-.3-.3-.6-.6-.6s-.6.3-.6.6.3.6.6.6c.4 0 .6-.3.6-.6zm-3.6 0c0-.3-.3-.6-.6-.6s-.6.2-.6.6c0 .3.3.6.6.6s.6-.3.6-.6z"/>
        <path stroke="#FD4F57" d="M32 33.36v-13.3h-3.6v13.3m-2.5 0v-18.1h-3.6v18.2m-2.5-.1v-8.5h-3.6v8.5m-2.4 0v-13.3h-3.6v13.3m-6.1 0v-3.6h3.6v3.6"/>
        <path stroke="#0B2135" d="M34.3 35.56c.8-.4 1.2-1.2 1.2-2.1V3.16c0-1.3-1.1-2.4-2.4-2.4H2.9C1.6.76.5 1.86.5 3.16v3.6h32.7M32 35.86H2.9c-1.4 0-2.4-1.1-2.4-2.4V9.16"/>
    </g>
</svg>
