<svg xmlns="http://www.w3.org/2000/svg" width="36" height="36" viewBox="0 0 36 36">
    <g fill="none" fill-rule="evenodd" stroke-linecap="round" stroke-linejoin="round">
        <path stroke="#FD4F57" d="M27.25 27.06h-1.2 1.2zm-1.2-2.4h1.2-1.2zm0-2.4h4.7-4.7zm-14.2 9.5h8.3-8.3zm4.8-3.6h-4.7 4.7zm-1.2-2.3h-3.5 3.5zm7.1-5.9h7.1-7.1zm3.5-2.4h4.7-4.7zm-10.6 2.4h0zm8.2-2.4h-8.3 8.3zm-8.2-3.5h4.7-4.7zm9.4-5.9h0zm4.7-2.4h-4.7 4.7zm-21.2 21.8c0-1-.8-1.8-1.8-1.8s-1.8.8-1.8 1.8.8 1.8 1.8 1.8 1.8-.8 1.8-1.8zm8.8-18.3c-1 0-1.8-.8-1.8-1.8s.8-1.8 1.8-1.8 1.8.8 1.8 1.8-.8 1.8-1.8 1.8z"/>
        <path stroke="#0B2135" d="M33.15 29.96c0-.3-.3-.6-.6-.6s-.6.3-.6.6.3.6.6.6.6-.3.6-.6zm-5.9 5.3h-1.2 1.2zm3.5-10.6c-.7 0-1.2.5-1.2 1.2v8.3c0 .7.5 1.2 1.2 1.2h3.5c.7 0 1.2-.5 1.2-1.2v-8.3c0-.7-.5-1.2-1.2-1.2h-3.5zm-27.1-7.1h2.4-2.4zm2.3-14.2h-2.3 2.3zm0 0l-1.1-2.3-1.2 2.3v15.3c0 .7.5 1.2 1.2 1.2s1.2-.5 1.2-1.2V3.36h-.1zm17.7 30.7c0 .7-.5 1.2-1.2 1.2h-20c-.7 0-1.2-.5-1.2-1.2v-10.6c0-.7.5-1.2 1.2-1.2h20.1c.7 0 1.2.5 1.2 1.2v10.6h-.1zm11.8-11.8v-20c0-.7-.5-1.2-1.2-1.2h-22.4c-.7 0-1.2.5-1.2 1.2v17.7"/>
    </g>
</svg>
