<svg xmlns="http://www.w3.org/2000/svg" width="39" height="37" viewBox="0 0 39 37">
    <g fill="none" fill-rule="evenodd" stroke-linecap="round" stroke-linejoin="round">
        <path stroke="#FD4F57" d="M.75 35.86h3.8v-5.6h3.8v5.6h2.6v-10.7h3.8v10.7h2.5v-13.2h3.8v13.2h2.6v-9.4h3.8v9.4h2.5v-18.3h3.9v18.3h3.8"/>
        <path stroke="#0B2135" d="M20.55 8.06l3.7 3.7-3.7-3.7zm13.8-3.8l-7.5 7.5 7.5-7.5zm-30.1 16.7l13.3-13.2-13.3 13.2zm33.4-18c0-1.1-.9-1.9-1.9-1.9-1.1 0-1.9.9-1.9 1.9 0 1 .9 1.9 1.9 1.9 1 0 1.9-.9 1.9-1.9zm-33.1 19c0-1.1-.9-1.9-1.9-1.9-1.1 0-1.9.9-1.9 1.9 0 1 .9 1.9 1.9 1.9 1 .1 1.9-.8 1.9-1.9zm22.9-8.9c0-1.1-.9-1.9-1.9-1.9-1.1 0-1.9.9-1.9 1.9 0 1.1.9 1.9 1.9 1.9 1 0 1.9-.8 1.9-1.9zm-8.3-4.4c-1.1 0-1.9-.9-1.9-1.9 0-1 .9-1.9 1.9-1.9 1.1 0 1.9.9 1.9 1.9 0 1-.8 1.9-1.9 1.9z"/>
    </g>
</svg>
