<?xml version="1.0" encoding="UTF-8"?>
<svg width="53px" height="53px" viewBox="0 0 53 53" version="1.1" xmlns="http://www.w3.org/2000/svg" xmlns:xlink="http://www.w3.org/1999/xlink">
    <!-- Generator: Sketch 53.2 (72643) - https://sketchapp.com -->
    <title>features-social ordering</title>
    <desc>Created with Sketch.</desc>
    <g id="Home-Page-Mockup" stroke="none" stroke-width="1" fill="none" fill-rule="evenodd" stroke-linecap="round" stroke-linejoin="round">
        <g id="Home-Page-Mockups" transform="translate(-584.000000, -1993.000000)">
            <g id="features-social-ordering" transform="translate(584.000000, 1993.000000)">
                <g id="Facebook" transform="translate(0.554688, 0.318359)">
                    <path d="M18,5 C18,4.6 17.7,4.1 17.1,4.1 C16.7,4.1 16.2,4.5 16.2,5 C16.2,5.5 16.6,5.9 17.1,5.9 C17.8,5.9 18,5.6 18,5 Z M12.8,5 C12.8,4.6 12.4,4.1 11.9,4.1 C11.5,4.1 11,4.5 11,5 C11,5.5 11.4,5.9 11.9,5.9 C12.5,5.9 12.8,5.6 12.8,5 Z M7.7,5 C7.7,4.6 7.3,4.1 6.8,4.1 C6.2,4.1 5.9,4.5 5.9,5 C5.9,5.5 6.3,5.9 6.8,5.9 C7.3,5.9 7.7,5.6 7.7,5 Z" id="Shape" stroke="#0B2135"></path>
                    <path d="M27.1,43.5 L27.1,33.7 L30.7,33.7 L31,30.2 L27.1,30.2 L27.1,27.6 C27.1,27 27.2,26.6 27.4,26.3 C27.5,26 28,25.9 28.6,25.9 L30.9,25.9 L31,22.5 L30.7,22.5 C30.6,22.5 30.1,22.5 29.7,22.4 L28.4,22.4 C26.6,22.4 25.3,22.8 24.5,23.9 C23.6,24.8 23.2,25.9 23.2,27.4 L23.2,30.5 L20.6,30.5 L20.6,34 L23.2,34 L23.2,43.6 C23.2,43.5 27.1,43.5 27.1,43.5 Z M28.6,14.6 L32.1,14.6 L28.6,14.6 Z M35.6,14.6 L39.1,14.6 L35.6,14.6 Z M42.6,14.6 L46.1,14.6 L42.6,14.6 Z M12.8,14.6 L5.9,14.6 C5.9,14.6 12.8,14.6 12.8,14.6 Z" id="Shape" stroke="#FD4F57"></path>
                    <path d="M47.8,9.4 L0.7,9.4 L0.7,4.1 C0.7,2.2 2.3,0.6 4.2,0.6 L47.8,0.6 C49.7,0.6 51.3,2.2 51.3,4.1 L51.3,47.9 C51.3,49.8 49.7,51.4 47.8,51.4 L4.2,51.4 C2.3,51.4 0.7,49.8 0.7,47.9 L0.7,12.9" id="Shape" stroke="#0B2135"></path>
                </g>
            </g>
        </g>
    </g>
</svg>